<?xml version="1.0" encoding="UTF-8"?>
<svg width="234px" height="66px" viewBox="0 0 234 66" version="1.1" xmlns="http://www.w3.org/2000/svg" xmlns:xlink="http://www.w3.org/1999/xlink">
    <!-- Generator: Sketch 41 (35326) - http://www.bohemiancoding.com/sketch -->
    <title>Group</title>
    <desc>Created with Sketch.</desc>
    <defs></defs>
    <g id="Page-1" stroke="none" stroke-width="1" fill="none" fill-rule="evenodd">
        <g id="Group">
            <path d="M61.772,21.8 L56.516,21.8 L46.328,39.692 L39.92,21.8 L34.772,21.8 L32.108,47 L37.508,47 L38.984,33.86 L43.34,47 L47.876,47 L55.184,33.788 L53.708,47 L59.108,47 L61.772,21.8 Z M70.844,21.548 L65.696,21.548 L65.228,25.94 L70.376,25.94 L70.844,21.548 Z M70.124,28.28 L64.976,28.28 L62.996,47 L68.144,47 L70.124,28.28 Z M82.112,33.824 L86.396,32.852 C85.676,29.972 83.48,27.956 79.772,27.956 C76.028,27.956 72.824,30.332 72.824,33.716 C72.824,36.272 74.444,37.928 77.72,39.116 L79.808,39.908 C80.78,40.304 81.104,40.736 81.104,41.384 C81.104,42.392 79.988,43.292 78.44,43.292 C76.568,43.292 75.74,42.212 75.38,40.988 L71.24,42.068 C71.672,45.344 74.768,47.36 78.296,47.36 C82.256,47.36 86.216,45.236 86.216,41.096 C86.216,37.928 83.804,36.92 81.356,35.984 L79.16,35.192 C78.26,34.796 77.864,34.472 77.864,33.716 C77.864,32.888 78.656,32.06 79.844,32.06 C80.816,32.06 81.68,32.492 82.112,33.824 Z M98.852,33.824 L103.136,32.852 C102.416,29.972 100.22,27.956 96.512,27.956 C92.768,27.956 89.564,30.332 89.564,33.716 C89.564,36.272 91.184,37.928 94.46,39.116 L96.548,39.908 C97.52,40.304 97.844,40.736 97.844,41.384 C97.844,42.392 96.728,43.292 95.18,43.292 C93.308,43.292 92.48,42.212 92.12,40.988 L87.98,42.068 C88.412,45.344 91.508,47.36 95.036,47.36 C98.996,47.36 102.956,45.236 102.956,41.096 C102.956,37.928 100.544,36.92 98.096,35.984 L95.9,35.192 C95,34.796 94.604,34.472 94.604,33.716 C94.604,32.888 95.396,32.06 96.584,32.06 C97.556,32.06 98.42,32.492 98.852,33.824 Z M116.024,27.956 C110.228,27.956 105.332,32.456 105.332,38.468 C105.332,44.444 110.228,47.36 114.332,47.36 C120.164,47.36 125.06,42.86 125.06,36.848 C125.06,30.872 120.128,27.956 116.024,27.956 Z M114.62,42.788 C112.604,42.788 110.336,41.348 110.336,38.324 C110.336,34.616 112.964,32.528 115.736,32.528 C117.788,32.528 120.056,33.968 120.056,36.992 C120.056,40.7 117.428,42.788 114.62,42.788 Z M134.168,47.288 C137.696,47.288 139.892,44.624 140.396,43.652 L139.964,47 L145.112,47 L147.092,28.28 L141.944,28.28 L140.756,38.792 C140.252,40.088 138.272,42.788 135.464,42.788 C133.592,42.788 132.584,41.852 132.944,38.792 L134.024,28.28 L128.876,28.28 L127.796,38.972 C127.184,44.84 130.532,47.288 134.168,47.288 Z M162.068,27.992 C158.9,27.992 156.488,29.972 155.228,32.744 L155.768,28.28 L150.62,28.28 L148.64,47 L153.788,47 L154.652,39.116 C155.336,35.516 158.396,32.924 161.996,32.924 C162.212,32.924 162.68,32.924 163.148,33.032 L163.652,28.136 C163.148,28.064 162.716,27.992 162.068,27.992 Z M172.112,21.548 L166.964,21.548 L166.496,25.94 L171.644,25.94 L172.112,21.548 Z M171.392,28.28 L166.244,28.28 L164.264,47 L169.412,47 L171.392,28.28 Z M192.992,47 L187.988,37.748 C190.904,36.416 192.74,33.896 193.064,30.62 C193.676,25.328 190.256,21.8 184.604,21.8 L175.892,21.8 L173.228,47 L178.484,47 L179.384,38.612 L183.128,38.612 L187.556,47 L192.992,47 Z M179.852,34.076 L180.608,26.624 L183.956,26.624 C186.548,26.624 188.168,27.596 187.88,30.116 C187.592,32.996 185.576,34.076 182.984,34.076 L179.852,34.076 Z M210.488,28.28 L210.164,30.44 C210.128,30.044 208.472,27.956 205.124,27.956 C199.544,27.956 195.008,32.744 195.008,38.684 C195.008,44.552 199.436,47.36 203.432,47.36 C206.6,47.36 208.58,45.56 208.796,44.804 L208.508,47 L213.656,47 L215.636,28.28 L210.488,28.28 Z M204.584,42.788 C202.1,42.788 200.084,41.276 200.084,38.252 C200.084,34.904 202.316,32.528 205.34,32.528 C207.572,32.528 209.768,33.968 209.768,36.956 C209.768,41.42 206.564,42.788 204.584,42.788 Z M225.032,21.548 L219.884,21.548 L219.416,25.94 L224.564,25.94 L225.032,21.548 Z M224.312,28.28 L219.164,28.28 L217.184,47 L222.332,47 L224.312,28.28 Z M233.708,21.548 L228.56,21.548 L225.86,47 L231.008,47 L233.708,21.548 Z" id="MissouriRail" fill="#3B5998"></path>
            <path d="M38.84,63 L39.884,63 L37.016,54.6 L36.188,54.6 L31.556,63 L32.636,63 L33.716,61.02 L38.192,61.02 L38.84,63 Z M34.172,60.18 L36.488,55.908 L37.904,60.18 L34.172,60.18 Z M45.872,54.516 L44.888,54.516 L43.988,63 L44.972,63 L45.872,54.516 Z M59.324,56.748 L56.948,61.716 L55.484,56.748 L54.596,56.748 L52.076,61.716 L50.744,56.748 L49.772,56.748 L51.512,63 L52.364,63 L54.944,57.888 L56.42,63 L57.272,63 L60.32,56.748 L59.324,56.748 Z M66.908,56.652 C65.036,56.652 63.464,58.26 63.464,60.24 C63.464,62.16 64.952,63.12 66.296,63.12 C67.4,63.12 68.288,62.544 68.66,61.824 L68.528,63 L69.5,63 L70.16,56.76 L69.188,56.76 L69.044,57.948 C68.828,57.288 68.036,56.652 66.908,56.652 Z M66.944,57.528 C67.928,57.528 68.924,58.164 68.924,59.544 C68.924,61.176 67.772,62.244 66.464,62.244 C65.48,62.244 64.424,61.572 64.424,60.168 C64.424,58.692 65.54,57.528 66.944,57.528 Z M79.52,56.748 L76.808,61.716 L75.128,56.748 L74.168,56.748 L76.22,62.784 L74.828,65.28 L75.836,65.28 L80.528,56.748 L79.52,56.748 Z M87.116,58.248 L87.92,58.044 C87.68,57.216 87.02,56.652 85.976,56.652 C84.836,56.652 83.9,57.408 83.9,58.428 C83.9,59.136 84.344,59.676 85.316,60.036 L85.988,60.276 C86.552,60.492 86.888,60.744 86.888,61.212 C86.888,61.932 86.192,62.316 85.52,62.316 C84.776,62.316 84.272,61.92 84.152,61.248 L83.348,61.44 C83.468,62.496 84.368,63.12 85.508,63.12 C86.612,63.12 87.848,62.472 87.848,61.152 C87.848,60.216 87.152,59.832 86.216,59.496 L85.604,59.28 C85.052,59.076 84.848,58.812 84.848,58.428 C84.848,57.876 85.316,57.456 85.976,57.456 C86.54,57.456 86.924,57.744 87.116,58.248 Z M103.736,54.48 C101.252,54.48 99.0080001,56.652 99.0080001,59.232 C99.0080001,61.548 100.832,63.12 102.896,63.12 C105.38,63.12 107.636,60.96 107.636,58.38 C107.636,56.064 105.812,54.48 103.736,54.48 Z M102.956,62.172 C101.42,62.172 100.04,60.96 100.04,59.184 C100.04,57.108 101.816,55.428 103.688,55.428 C105.224,55.428 106.604,56.64 106.604,58.416 C106.604,60.492 104.816,62.172 102.956,62.172 Z M115.46,56.664 C114.104,56.664 113.228,57.756 113.072,58.188 L113.228,56.76 L112.244,56.76 L111.584,63 L112.568,63 L112.964,59.328 C113.18,58.56 114.08,57.528 115.22,57.528 C116.084,57.528 116.756,58.068 116.612,59.388 L116.216,63 L117.2,63 L117.584,59.376 C117.788,57.444 116.684,56.664 115.46,56.664 Z M131.96,54.456 C130.448,54.456 129.212,55.404 129.212,56.772 C129.212,57.852 129.944,58.464 131.084,58.92 L131.684,59.16 C132.572,59.508 133.172,59.832 133.172,60.636 C133.172,61.644 132.248,62.268 131.216,62.268 C130.148,62.268 129.452,61.644 129.248,60.756 L128.432,61.104 C128.648,62.304 129.728,63.18 131.192,63.18 C132.68,63.18 134.192,62.232 134.192,60.612 C134.192,59.448 133.328,58.836 131.972,58.308 L131.384,58.08 C130.58,57.768 130.196,57.384 130.196,56.76 C130.196,55.908 130.904,55.356 131.912,55.356 C132.8,55.356 133.352,55.848 133.664,56.604 L134.456,56.232 C134.168,55.332 133.292,54.456 131.96,54.456 Z M141.752,56.652 C139.832,56.652 138.224,58.212 138.224,60.216 C138.224,62.16 139.784,63.108 141.14,63.108 C142.244,63.108 143.264,62.628 143.924,61.62 L143.156,61.236 C142.7,61.872 142.004,62.244 141.188,62.244 C140.228,62.244 139.172,61.584 139.172,60.204 C139.172,58.68 140.348,57.528 141.668,57.528 C142.496,57.528 143.132,57.864 143.456,58.488 L144.26,58.188 C143.828,57.18 142.892,56.652 141.752,56.652 Z M151.88,56.664 C150.524,56.664 149.648,57.756 149.492,58.188 L149.888,54.516 L148.904,54.516 L148.004,63 L148.988,63 L149.384,59.328 C149.6,58.56 150.5,57.528 151.64,57.528 C152.504,57.528 153.176,58.068 153.032,59.388 L152.636,63 L153.62,63 L154.004,59.376 C154.208,57.444 153.104,56.664 151.88,56.664 Z M161.708,56.652 C159.812,56.652 158.192,58.248 158.192,60.24 C158.192,62.148 159.704,63.12 161.216,63.12 C162.296,63.12 163.136,62.808 163.76,62.124 L163.244,61.596 C162.74,62.04 162.152,62.28 161.276,62.28 C160.148,62.28 159.152,61.62 159.14,60.264 L164.42,60.264 C164.48,59.964 164.504,59.688 164.504,59.424 C164.504,57.516 162.968,56.652 161.708,56.652 Z M161.684,57.504 C162.62,57.504 163.664,58.14 163.628,59.52 L159.236,59.52 C159.536,58.164 160.712,57.504 161.684,57.504 Z M174.512,54.516 L174.128,57.948 C173.912,57.288 173.12,56.652 171.992,56.652 C170.12,56.652 168.548,58.26 168.548,60.24 C168.548,62.16 170.036,63.12 171.38,63.12 C172.484,63.12 173.372,62.544 173.744,61.824 L173.612,63 L174.584,63 L175.484,54.516 L174.512,54.516 Z M172.028,57.528 C173.012,57.528 174.008,58.164 174.008,59.544 C174.008,61.176 172.856,62.244 171.548,62.244 C170.564,62.244 169.508,61.572 169.508,60.168 C169.508,58.692 170.624,57.528 172.028,57.528 Z M181.388,63.096 C182.732,63.096 183.584,62.004 183.752,61.572 L183.596,63 L184.568,63 L185.228,56.76 L184.256,56.76 L183.86,60.432 C183.632,61.176 182.732,62.22 181.592,62.22 C180.692,62.22 180.08,61.68 180.224,60.372 L180.596,56.76 L179.624,56.76 L179.252,60.372 C179.048,62.292 180.152,63.096 181.388,63.096 Z M190.928,54.516 L189.944,54.516 L189.044,63 L190.028,63 L190.928,54.516 Z M198.128,56.652 C196.232,56.652 194.612,58.248 194.612,60.24 C194.612,62.148 196.124,63.12 197.636,63.12 C198.716,63.12 199.556,62.808 200.18,62.124 L199.664,61.596 C199.16,62.04 198.572,62.28 197.696,62.28 C196.568,62.28 195.572,61.62 195.56,60.264 L200.84,60.264 C200.9,59.964 200.924,59.688 200.924,59.424 C200.924,57.516 199.388,56.652 198.128,56.652 Z M198.104,57.504 C199.04,57.504 200.084,58.14 200.048,59.52 L195.656,59.52 C195.956,58.164 197.132,57.504 198.104,57.504 Z M208.856,59.244 L205.136,59.244 L205.052,60.048 L208.772,60.048 L208.856,59.244 Z M214.784,54.516 L213.8,54.516 L213.716,55.392 L214.688,55.392 L214.784,54.516 Z M214.544,56.76 L213.56,56.76 L212.9,63 L213.884,63 L214.544,56.76 Z M221.912,58.248 L222.716,58.044 C222.476,57.216 221.816,56.652 220.772,56.652 C219.632,56.652 218.696,57.408 218.696,58.428 C218.696,59.136 219.14,59.676 220.112,60.036 L220.784,60.276 C221.348,60.492 221.684,60.744 221.684,61.212 C221.684,61.932 220.988,62.316 220.316,62.316 C219.572,62.316 219.068,61.92 218.948,61.248 L218.144,61.44 C218.264,62.496 219.164,63.12 220.304,63.12 C221.408,63.12 222.644,62.472 222.644,61.152 C222.644,60.216 221.948,59.832 221.012,59.496 L220.4,59.28 C219.848,59.076 219.644,58.812 219.644,58.428 C219.644,57.876 220.112,57.456 220.772,57.456 C221.336,57.456 221.72,57.744 221.912,58.248 Z M230.564,56.664 C229.208,56.664 228.332,57.756 228.176,58.188 L228.572,54.516 L227.588,54.516 L226.688,63 L227.672,63 L228.068,59.328 C228.284,58.56 229.184,57.528 230.324,57.528 C231.188,57.528 231.86,58.068 231.716,59.388 L231.32,63 L232.304,63 L232.688,59.376 C232.892,57.444 231.788,56.664 230.564,56.664 Z" id="Always-On-Schedule-i" fill="#000000"></path>
            <path d="M17.7942,64.836551 C9.13953486,61.232344 2.86855089,55.1888863 0.756535251,47.3067366 C-3.90767204,29.899678 13.4780545,10.1168383 39.5886424,3.12052736 C52.863994,-0.436592377 65.8387922,-0.00355108349 76,3.56952066 C69.3967035,3.81368295 62.4042412,4.84909409 55.3048861,6.75136056 C25.148457,14.8317514 4.48292813,35.4934115 9.14713542,52.9004701 C10.4203446,57.6521514 13.4493882,61.6701355 17.7942,64.836551 Z" id="Combined-Shape" fill="#D0011B"></path>
        </g>
    </g>
</svg>